# xmcd CD database file
#
# Track frame offsets:
#	150
#	18771
#	46461
#	58914
#	72612
#	96334
#	114089
#	133661
#	152693
#	167429
#	183858
#	208469
#	229180
#	243212
#	262704
#	288612
#	305485
#
# Disc length: 4463 seconds
#
# Revision: 0
# Processed by: cddbd v1.5.2PL0 Copyright (c) Steve Scherf et al.
# Submitted via: CDex 1.51
#
DISCID=ed116d11
DTITLE=Dave Kelly - Solo Performances Live In Germany 1986-1989 CD 1
DYEAR=2016
DGENRE=Blues
TTITLE0=Kokomo Blues
TTITLE1=Willing
TTITLE2=Louisiana Blues
TTITLE3=Peggy Sue Got Married
TTITLE4=Leaving
TTITLE5=Sunny Afternoon
TTITLE6=Till I Gain Control Again
TTITLE7=Get Right Church
TTITLE8=Devil Got My Woman
TTITLE9=Statesboro Blues
TTITLE10=How Can A Poor Man Stand...
TTITLE11=Two Trains Running
TTITLE12=32-20
TTITLE13=San Francisco Bay Blues
TTITLE14=Can`t Be Satisfied - It`s All Over Now
TTITLE15=Groundhog Blues
TTITLE16=Hoochie Coochie Man
EXTD=YEAR: 2016
EXTT0=
EXTT1=
EXTT2=
EXTT3=
EXTT4=
EXTT5=
EXTT6=
EXTT7=
EXTT8=
EXTT9=
EXTT10=
EXTT11=
EXTT12=
EXTT13=
EXTT14=
EXTT15=
EXTT16=
PLAYORDER=
